<?xml version="1.0" standalone="no"?>
<!DOCTYPE svg PUBLIC "-//W3C//DTD SVG 20010904//EN"
 "http://www.w3.org/TR/2001/REC-SVG-20010904/DTD/svg10.dtd">
<svg version="1.0" xmlns="http://www.w3.org/2000/svg"
 width="600.000000pt" height="600.000000pt" viewBox="0 0 600.000000 600.000000"
 preserveAspectRatio="xMidYMid meet">
<metadata>
Created by potrace 1.14, written by Peter Selinger 2001-2017
</metadata>
<g transform="translate(0.000000,600.000000) scale(0.100000,-0.100000)"
fill="#000000" stroke="none">
<path d="M2896 5442 c-2 -1 -29 -4 -60 -7 -134 -9 -194 -17 -373 -51 -12 -2
-34 -9 -48 -14 -14 -5 -25 -7 -25 -5 0 2 -12 0 -27 -6 -16 -6 -52 -17 -81 -25
-29 -8 -72 -23 -96 -33 -23 -11 -48 -21 -56 -23 -8 -2 -21 -10 -28 -18 -12
-13 -13 -13 -6 0 6 12 5 13 -7 4 -15 -12 -75 -48 -121 -71 -16 -8 -28 -19 -28
-25 0 -6 -3 -9 -6 -5 -8 8 -22 -4 -115 -95 -44 -42 -79 -81 -79 -87 0 -5 -10
-17 -22 -25 -12 -9 -19 -16 -15 -16 4 0 -5 -20 -22 -43 -27 -39 -118 -217
-121 -235 0 -4 -11 -38 -23 -77 -12 -38 -22 -72 -22 -75 -1 -3 -4 -14 -8 -25
-12 -37 -18 -79 -24 -160 -3 -44 -9 -82 -13 -85 -12 -8 -17 -250 -5 -250 6 0
5 -4 -2 -8 -6 -4 -13 -16 -15 -27 -1 -11 -10 -28 -18 -38 -8 -10 -16 -22 -16
-27 -1 -6 -2 -15 -3 -21 0 -5 -5 -8 -10 -4 -6 3 -8 -4 -6 -15 2 -11 0 -20 -6
-20 -5 0 -9 -5 -9 -11 0 -5 6 -7 13 -3 9 6 9 4 -1 -8 -7 -9 -15 -26 -17 -39
-3 -12 -10 -26 -16 -29 -6 -4 -10 -10 -10 -14 3 -17 0 -26 -6 -25 -21 3 -32
-3 -38 -21 -4 -11 -10 -18 -14 -16 -4 3 -7 -9 -6 -27 1 -18 -4 -38 -9 -46 -6
-7 -11 -19 -12 -25 0 -6 -2 -17 -2 -24 -1 -7 -6 -11 -11 -8 -5 4 -7 -2 -4 -12
2 -11 -6 -28 -21 -43 -13 -14 -28 -37 -31 -52 -4 -15 -11 -27 -15 -27 -4 0 -4
-19 0 -42 9 -48 12 -54 23 -50 4 1 6 -1 6 -5 -1 -5 -1 -15 0 -23 1 -12 3 -13
10 -1 6 9 9 -1 10 -30 3 -66 3 -67 16 -63 13 5 14 -7 14 -180 0 -94 -4 -136
-15 -157 -8 -16 -14 -31 -13 -35 2 -11 -78 -103 -85 -97 -3 3 -6 1 -6 -5 0 -6
-21 -32 -46 -57 -25 -25 -43 -45 -39 -45 3 0 -10 -20 -29 -44 -20 -23 -36 -48
-36 -55 0 -6 -4 -11 -10 -11 -5 0 -12 -11 -16 -25 -3 -14 -10 -25 -15 -25 -5
0 -8 -3 -7 -7 1 -5 -3 -17 -9 -29 -17 -31 -52 -119 -58 -149 -3 -14 -8 -37
-11 -53 -4 -15 -7 -67 -7 -117 1 -122 44 -245 109 -312 7 -7 14 -17 16 -21 3
-9 75 -57 90 -61 8 -2 80 -33 171 -73 26 -12 47 -26 47 -30 0 -5 7 -16 15 -25
12 -12 15 -42 14 -150 -1 -129 1 -136 25 -174 15 -21 30 -39 34 -39 4 0 18
-16 31 -35 18 -27 111 -128 111 -121 0 1 36 -33 80 -76 44 -43 83 -78 87 -78
5 0 26 -16 48 -35 61 -53 63 -55 75 -55 5 0 10 -3 10 -8 0 -4 9 -13 21 -20 17
-11 20 -11 13 0 -4 7 7 1 25 -15 18 -15 37 -25 42 -21 5 3 9 0 9 -6 0 -6 4 -9
9 -5 6 3 14 -3 20 -12 8 -14 10 -15 11 -3 0 12 2 13 9 1 13 -21 48 -24 286
-27 206 -2 223 -1 268 19 26 12 47 25 47 29 0 5 5 8 10 8 6 0 28 15 48 34 20
19 46 43 57 53 12 10 28 34 37 53 10 19 18 34 20 32 2 -2 16 2 32 8 16 6 34 9
40 7 6 -3 19 0 29 5 10 5 17 5 17 -1 0 -5 30 -9 68 -8 43 1 67 6 67 14 0 6 4
15 8 20 5 4 8 3 7 -2 -5 -22 1 -27 15 -15 8 7 15 9 15 4 0 -5 20 -9 44 -9 24
0 42 4 39 9 -4 5 0 6 7 1 8 -5 39 -10 69 -12 66 -4 105 -12 98 -19 -8 -8 56
-74 71 -74 7 0 10 -4 7 -10 -3 -5 0 -10 8 -10 7 0 20 -11 27 -25 7 -14 15 -23
18 -20 2 2 10 -1 18 -8 31 -28 70 -53 103 -67 14 -7 115 -11 245 -11 192 0
228 3 276 19 57 20 161 75 192 102 10 8 27 23 38 33 11 9 23 17 28 17 4 0 19
11 34 25 15 14 32 25 38 25 6 0 9 4 6 8 -3 5 6 15 19 22 14 7 25 19 25 27 0 7
5 13 11 13 14 0 189 178 189 192 0 5 5 6 10 3 6 -3 10 -2 10 4 0 5 6 16 13 23
7 7 23 28 36 47 23 31 24 44 26 172 1 138 1 139 29 168 16 17 33 28 38 25 4
-3 8 -1 8 3 0 9 147 73 166 73 5 0 22 11 37 25 15 14 27 22 27 18 0 -4 18 13
40 37 22 24 40 50 40 57 0 7 4 13 9 13 10 0 35 58 34 78 0 6 2 12 6 12 4 0 8
6 8 13 0 6 5 35 11 62 9 41 9 127 1 205 -2 21 -35 123 -47 146 -5 10 -20 43
-33 72 -12 28 -25 52 -28 52 -3 0 -12 12 -18 28 -7 15 -24 40 -38 56 -14 16
-25 32 -25 35 0 3 -33 41 -73 83 -83 89 -100 108 -92 108 3 0 -4 9 -15 20 -21
21 -22 24 -24 205 -2 128 1 145 22 145 8 0 13 3 9 6 -3 3 7 17 22 30 26 22 28
27 29 116 1 107 -10 146 -45 154 -19 5 -21 9 -11 15 10 7 10 9 -2 9 -10 0 -17
11 -18 28 -3 29 -9 65 -12 70 -2 1 -3 5 -4 10 -1 4 -7 17 -14 30 -7 12 -10 22
-7 22 4 0 -3 14 -15 30 -12 17 -18 30 -14 30 4 0 -5 11 -20 25 -15 14 -24 25
-20 25 4 0 0 8 -8 18 -17 18 -33 59 -37 93 0 5 -5 7 -11 4 -6 -3 -7 1 -4 9 3
9 -3 35 -15 58 -16 34 -21 70 -25 168 -7 146 -11 183 -36 305 -22 109 -61 227
-101 313 -16 35 -29 67 -29 72 0 6 -4 10 -8 10 -4 0 -13 12 -20 28 -17 40 -53
97 -63 100 -5 2 -9 9 -9 16 0 7 -16 27 -35 46 -19 18 -32 37 -29 42 3 4 1 8
-4 8 -5 0 -22 13 -38 30 -16 16 -35 30 -41 30 -7 0 -13 6 -13 14 0 8 -9 18
-20 21 -11 3 -20 11 -20 17 0 6 -3 9 -6 5 -3 -3 -15 2 -25 12 -24 22 -193 107
-232 116 -15 4 -30 11 -33 16 -3 5 -10 7 -15 4 -5 -4 -9 -1 -9 6 0 7 -3 10 -6
6 -3 -3 -27 1 -52 9 -48 16 -98 29 -142 38 -46 9 -72 15 -88 20 -9 3 -37 8
-62 11 -25 2 -61 7 -80 10 -102 15 -493 28 -504 17z m351 -3588 c13 -4 23 -10
23 -15 0 -5 8 -9 18 -9 20 0 42 -33 45 -68 0 -12 5 -22 10 -22 5 0 7 -7 3 -15
-3 -8 -1 -15 4 -15 6 0 9 -3 8 -7 -4 -14 105 -227 125 -245 11 -10 16 -18 11
-18 -5 0 6 -8 23 -16 18 -9 30 -20 27 -25 -3 -5 -1 -9 4 -9 21 0 7 -30 -15
-31 -12 -1 -33 -2 -45 -3 -13 -1 -27 0 -32 3 -6 2 -24 5 -41 7 -36 2 -85 25
-104 48 -8 9 -11 16 -7 16 4 0 0 10 -8 23 -8 12 -16 27 -17 32 -3 16 -6 26
-35 108 -24 71 -64 124 -83 113 -3 -2 -16 7 -29 20 -12 13 -20 24 -16 24 3 0
2 6 -3 13 -11 14 -9 79 2 97 7 11 74 8 132 -6z m-562 -557 c5 4 4 1 -3 -8 -6
-9 -9 -19 -5 -22 3 -4 1 -7 -5 -7 -7 0 -12 -5 -12 -11 0 -5 3 -8 8 -6 11 8 8
-77 -3 -85 -7 -5 -7 -8 0 -8 6 0 10 -13 10 -30 0 -16 -3 -30 -7 -30 -5 0 -8
-7 -8 -15 0 -9 -6 -12 -15 -9 -8 4 -15 1 -15 -5 0 -6 -5 -11 -11 -11 -5 0 -7
6 -3 13 5 8 2 8 -9 -2 -15 -12 -17 -11 -17 3 0 10 -4 14 -10 11 -5 -3 -10 0
-10 8 0 8 -8 21 -17 28 -14 12 -16 12 -8 0 6 -10 4 -12 -4 -7 -7 4 -10 13 -8
19 2 7 -3 18 -12 25 -9 8 -10 10 -3 7 11 -6 11 -3 1 13 -7 12 -16 19 -20 16
-4 -2 -2 7 4 20 7 13 15 22 19 20 5 -3 8 4 8 16 0 20 64 69 83 62 4 -1 7 2 7
8 0 5 7 7 15 4 9 -4 15 0 15 7 1 8 6 4 13 -9 7 -12 17 -19 22 -15z"/>
</g>
</svg>
